<svg width="24" height="24" xmlns="http://www.w3.org/2000/svg">
<path d="M20 0H4a4.005 4.005 0 0 0-4 4v16a4.005 4.005 0 0 0 4 4h16a4.005 4.005 0 0 0 4-4V4a4.005 4.005 0 0 0-4-4ZM7.5 18a1.5 1.5 0 1 1 0-3 1.5 1.5 0 0 1 0 3Zm0-9a1.5 1.5 0 1 1 0-3 1.5 1.5 0 0 1 0 3Zm4.5 4.5a1.5 1.5 0 1 1 0-3 1.5 1.5 0 0 1 0 3Zm4.5 4.5a1.5 1.5 0 1 1 0-3 1.5 1.5 0 0 1 0 3Zm0-9a1.5 1.5 0 1 1 0-3 1.5 1.5 0 0 1 0 3Z" fill="#202733"/>


<rect x="3" y="3" width="18" height="18" fill="#202733"/>
<!--4-->
<circle cx="7.5"  cy="7.5"  r="1.5" fill="#52ffa8" />
<circle cx="16.5" cy="7.5"  r="1.5" fill="#52ffa8" />
<circle cx="7.5"  cy="16.5" r="1.5" fill="#52ffa8" />
<circle cx="16.5" cy="16.5" r="1.5" fill="#52ffa8" />


</svg>
